<?xml version="1.0" encoding="utf-8" standalone="no"?>
<!DOCTYPE svg PUBLIC "-//W3C//DTD SVG 1.1//EN" "http://www.w3.org/Graphics/SVG/1.1/DTD/svg11.dtd">
<svg version="1.1"
   xmlns="http://www.w3.org/2000/svg"
   width="990" height="300" viewBox="0 0 1980 600">
  <rect width="600" height="600" fill="#ee2722" />
  <path d="M 301,193 l 0,65 110,0 -18,39 -92,0 0,30 79,0 -18,39 -61,0 0,119 -69,0 0,-119 -39,0 0,-39 39,0 0,-30 -39,0 0,-39 39,0 0,-122 179,0 0,57" fill="white" />
  <path d="M 708,293 l 0,33 28,0 0,104 59,0 0,-104 56,0 15,-33 -71,0 0,-19 79,0 15,-33 -94,0 0,-56 94,0 0,-49 -153,0 0,104 -28,0 0,33 28,0 0,19 m 178,-53 l 59,0 0,190 -59,0 m 30,-300 c -18,0 -31,16 -31,32 0,15 13,31 31,31 17,0 31,-15 31,-32 0,-17 -15,-31 -31,-31 m 200,135 l 0,-129 53,0 0,294 -51,0 0,-27 -1,0 c -15,23 -37,32 -62,32 -53,0 -89,-48 -89,-101 0,-53 34,-100 89,-100 24,0 42,8 60,31 m 3,70 c 0,-29 -16,-56 -49,-56 -31,0 -47,28 -47,56 0,30 17,56 48,56 31,0 48,-25 48,-57 m 265,15 h -139 c 2,22 16,44 44,44 17,0 31,-8 38,-23 l 52,4 c -12,39 -47,59 -92,59 -58,0 -98,-39 -98,-100 0,-62 40,-101 98,-101 57,0 97,39 97,101 m -53,-19 c -2,-19 -16,-41 -42,-41 -28,0 -41,19 -44,41 m 159,114 l 53,0 0,-294 -53,0 m 79,294 l 54,0 0,-191 -54,0 m 27,-109 c -18,0 -31,16 -31,32 0,15 13,31 31,31 17,0 31,-15 31,-32 0,-17 -15,-31 -31,-31 m 154,258 c -3,1 -6,1 -11,1 -14,0 -17,-4 -17,-13 l 0,-96 28,0 0,-41 -28,0 0,-60 -54,0 0,60 -24,0 0,41 24,0 0,102 c 0,41 21,50 56,50 9,0 17,-1 26,-2 m 66,54 l 56,0 93,-245 -59,0 -41,126 -41,-126 -59,0 72,191 M 782,598 l -12,0 0,0 -9,-35 -9,35 -12,0 -14,-51 12,0 8,37 8,-37 12,0 0,0 8,36 8,-37 12,0 m 38,-1 c 17,0 26,13 26,26 0,14 -9,26 -26,26 -17,0 -26,-13 -26,-26 0,-14 9,-26 26,-26 m 0,9 c -10,0 -15,9 -15,17 0,8 5,17 15,17 10,0 15,-8 15,-17 0,-8 -5,-17 -15,-17 m 83,43 l -13,0 0,0 -10,-20 -6,0 0,20 -11,0 0,-51 20,0 c 11,0 18,6 18,15 0,5 -3,12 -10,14 m -17,-20 l 0,13 7,0 c 8,0 9,-4 9,-7 0,-4 -3,-7 -9,-7 m 68,42 l -32,0 0,-51 11,0 0,41 21,0 m 15,10 l 0,-51 20,0 c 17,0 26,9 26,25 0,18 -13,25 -25,25 m -10,-42 l 0,33 9,0 c 11,0 15,-9 15,-17 0,-6 -2,-16 -16,-16 m 94,42 l -12,0 -9,-35 -8,35 -12,0 -14,-51 12,0 8,36 8,-37 12,0 9,36 8,-37 11,0 m 26,51 l -11,0 0,-51 11,0 m 19,51 l 0,-51 20,0 c 17,0 26,9 26,25 0,18 -13,25 -25,26 m -10,-42 l 0,33 9,0 c 11,0 15,-9 15,-17 0,-6 -2,-16 -16,-16 m 78,42 l -35,0 0,-51 35,0 0,9 -23,0 0,11 22,0 0,9 -22,0 0,12 23,0 m 54,10 l -11,0 0,-51 11,0 m 63,51 l -11,0 -22,-34 0,34 -11,0 0,-51 12,0 22,33 0,-34 10,0 m 43,51 l -12,0 -17,-51 12,0 11,37 11,-37 12,0 m 48,51 l -35,0 0,-51 35,0 0,9 -24,0 0,11 23,0 0,9 -23,0 0,12 24,0 m 42,-28 c 0,-3 -4,-5 -8,-5 -5,0 -8,2 -8,5 0,3 3,5 6,6 l 10,3 c 8,3 12,7 12,14 0,5 -4,16 -20,16 -18,0 -20,-11 -20,-16 l 11,0 c 0,7 6,7 9,7 4,0 9,-2 9,-5 0,-2 -1,-4 -7,-6 l -11,-4 c -6,-2 -10,-7 -10,-13 0,-5 4,-16 18,-16 20,0 20,14 20,14 m 39,38 l -11,0 0,-41 -14,0 0,-9 39,0 0,9 -14,0 m 84,42 l -10,0 0,-34 -14,34 -7,0 -14,-33 0,33 -10,0 0,-51 12,0 16,34 15,-34 12,0 m 53,51 l -34,0 0,-51 34,0 0,9 -23,0 0,11 23,0 0,10 -23,0 0,11 23,0 m 60,10 l -11,0 -22,-34 0,34 -11,0 0,-51 12,0 22,33 0,-33 10,0 m 40,51 l -11,0 0,-42 -14,0 0,-9 39,0 0,9 -14,0 M 1917,102 l -10,0 0,-7 28,0 0,7 -10,0 0,31 -8,0 m 56,-25 l -10,25 -5,0 -10,-25 0,25 -7,0 0,-38 9,0 10,26 11,-26 9,0 0,38 -7,0" fill="#287ac8" />
</svg>
